<svg width="106" height="25" viewBox="0 0 106 25" fill="none" xmlns="http://www.w3.org/2000/svg">
<path d="M0.75 0.5H5.25V20.625L4.79688 24.5H0.75V0.5ZM15.9531 15.875V16.2031C15.9531 17.4635 15.8177 18.6198 15.5469 19.6719C15.2865 20.724 14.8802 21.6354 14.3281 22.4062C13.776 23.1667 13.0885 23.7604 12.2656 24.1875C11.4531 24.6042 10.4948 24.8125 9.39062 24.8125C8.35938 24.8125 7.46354 24.6042 6.70312 24.1875C5.95312 23.7708 5.32292 23.1823 4.8125 22.4219C4.30208 21.6615 3.89062 20.7708 3.57812 19.75C3.26562 18.7292 3.03125 17.6146 2.875 16.4062V15.6875C3.03125 14.4792 3.26562 13.3646 3.57812 12.3438C3.89062 11.3229 4.30208 10.4323 4.8125 9.67188C5.32292 8.91146 5.95312 8.32292 6.70312 7.90625C7.45312 7.48958 8.33854 7.28125 9.35938 7.28125C10.474 7.28125 11.4427 7.49479 12.2656 7.92188C13.099 8.33854 13.7865 8.93229 14.3281 9.70312C14.8802 10.4635 15.2865 11.3698 15.5469 12.4219C15.8177 13.4635 15.9531 14.6146 15.9531 15.875ZM11.4531 16.2031V15.875C11.4531 15.1875 11.401 14.5417 11.2969 13.9375C11.2031 13.3229 11.0365 12.7865 10.7969 12.3281C10.5573 11.8594 10.2292 11.4896 9.8125 11.2188C9.40625 10.9479 8.88021 10.8125 8.23438 10.8125C7.61979 10.8125 7.09896 10.9167 6.67188 11.125C6.24479 11.3333 5.89062 11.625 5.60938 12C5.33854 12.375 5.13542 12.8229 5 13.3438C4.86458 13.8542 4.78125 14.4167 4.75 15.0312V17.0781C4.78125 17.901 4.91667 18.6302 5.15625 19.2656C5.40625 19.8906 5.78125 20.3854 6.28125 20.75C6.79167 21.1042 7.45312 21.2812 8.26562 21.2812C8.90104 21.2812 9.42708 21.1562 9.84375 20.9062C10.2604 20.6562 10.5833 20.3021 10.8125 19.8438C11.0521 19.3854 11.2188 18.849 11.3125 18.2344C11.4062 17.6094 11.4531 16.9323 11.4531 16.2031ZM23.25 11.2812V24.5H18.75V7.59375H22.9844L23.25 11.2812ZM28.3438 7.48438L28.2656 11.6562C28.0469 11.625 27.7812 11.599 27.4688 11.5781C27.1667 11.5469 26.8906 11.5312 26.6406 11.5312C26.0052 11.5312 25.4531 11.6146 24.9844 11.7812C24.526 11.9375 24.1406 12.1719 23.8281 12.4844C23.526 12.7969 23.2969 13.1771 23.1406 13.625C22.9948 14.0729 22.9115 14.5833 22.8906 15.1562L21.9844 14.875C21.9844 13.7812 22.0938 12.776 22.3125 11.8594C22.5312 10.9323 22.849 10.125 23.2656 9.4375C23.6927 8.75 24.2135 8.21875 24.8281 7.84375C25.4427 7.46875 26.1458 7.28125 26.9375 7.28125C27.1875 7.28125 27.4427 7.30208 27.7031 7.34375C27.9635 7.375 28.1771 7.42188 28.3438 7.48438ZM37.9375 24.8125C36.625 24.8125 35.4479 24.6042 34.4062 24.1875C33.3646 23.7604 32.4792 23.1719 31.75 22.4219C31.0312 21.6719 30.4792 20.8021 30.0938 19.8125C29.7083 18.8125 29.5156 17.75 29.5156 16.625V16C29.5156 14.7188 29.6979 13.5469 30.0625 12.4844C30.4271 11.4219 30.9479 10.5 31.625 9.71875C32.3125 8.9375 33.1458 8.33854 34.125 7.92188C35.1042 7.49479 36.2083 7.28125 37.4375 7.28125C38.6354 7.28125 39.6979 7.47917 40.625 7.875C41.5521 8.27083 42.3281 8.83333 42.9531 9.5625C43.5885 10.2917 44.0677 11.1667 44.3906 12.1875C44.7135 13.1979 44.875 14.3229 44.875 15.5625V17.4375H31.4375V14.4375H40.4531V14.0938C40.4531 13.4688 40.3385 12.9115 40.1094 12.4219C39.8906 11.9219 39.5573 11.526 39.1094 11.2344C38.6615 10.9427 38.0885 10.7969 37.3906 10.7969C36.7969 10.7969 36.2865 10.9271 35.8594 11.1875C35.4323 11.4479 35.0833 11.8125 34.8125 12.2812C34.5521 12.75 34.3542 13.3021 34.2188 13.9375C34.0938 14.5625 34.0312 15.25 34.0312 16V16.625C34.0312 17.3021 34.125 17.9271 34.3125 18.5C34.5104 19.0729 34.7865 19.5677 35.1406 19.9844C35.5052 20.401 35.9427 20.724 36.4531 20.9531C36.974 21.1823 37.5625 21.2969 38.2188 21.2969C39.0312 21.2969 39.7865 21.1406 40.4844 20.8281C41.1927 20.5052 41.8021 20.0208 42.3125 19.375L44.5 21.75C44.1458 22.2604 43.6615 22.75 43.0469 23.2188C42.4427 23.6875 41.7135 24.0729 40.8594 24.375C40.0052 24.6667 39.0312 24.8125 37.9375 24.8125ZM56.5625 20.6875V13.1562C56.5625 12.6146 56.474 12.151 56.2969 11.7656C56.1198 11.3698 55.8438 11.0625 55.4688 10.8438C55.1042 10.625 54.6302 10.5156 54.0469 10.5156C53.5469 10.5156 53.1146 10.6042 52.75 10.7812C52.3854 10.9479 52.1042 11.1927 51.9062 11.5156C51.7083 11.8281 51.6094 12.1979 51.6094 12.625H47.1094C47.1094 11.9062 47.276 11.224 47.6094 10.5781C47.9427 9.93229 48.4271 9.36458 49.0625 8.875C49.6979 8.375 50.4531 7.98438 51.3281 7.70312C52.2135 7.42188 53.2031 7.28125 54.2969 7.28125C55.6094 7.28125 56.776 7.5 57.7969 7.9375C58.8177 8.375 59.6198 9.03125 60.2031 9.90625C60.7969 10.7812 61.0938 11.875 61.0938 13.1875V20.4219C61.0938 21.349 61.151 22.1094 61.2656 22.7031C61.3802 23.2865 61.5469 23.7969 61.7656 24.2344V24.5H57.2188C57 24.0417 56.8333 23.4688 56.7188 22.7812C56.6146 22.0833 56.5625 21.3854 56.5625 20.6875ZM57.1562 14.2031L57.1875 16.75H54.6719C54.0781 16.75 53.5625 16.8177 53.125 16.9531C52.6875 17.0885 52.3281 17.2812 52.0469 17.5312C51.7656 17.7708 51.5573 18.0521 51.4219 18.375C51.2969 18.6979 51.2344 19.0521 51.2344 19.4375C51.2344 19.8229 51.3229 20.1719 51.5 20.4844C51.6771 20.7865 51.9323 21.026 52.2656 21.2031C52.599 21.3698 52.9896 21.4531 53.4375 21.4531C54.1146 21.4531 54.7031 21.3177 55.2031 21.0469C55.7031 20.776 56.0885 20.4427 56.3594 20.0469C56.6406 19.651 56.7865 19.276 56.7969 18.9219L57.9844 20.8281C57.8177 21.2552 57.5885 21.6979 57.2969 22.1562C57.0156 22.6146 56.6562 23.0469 56.2188 23.4531C55.7812 23.849 55.2552 24.1771 54.6406 24.4375C54.026 24.6875 53.2969 24.8125 52.4531 24.8125C51.3802 24.8125 50.4062 24.599 49.5312 24.1719C48.6667 23.7344 47.9792 23.1354 47.4688 22.375C46.9688 21.6042 46.7188 20.7292 46.7188 19.75C46.7188 18.8646 46.8854 18.0781 47.2188 17.3906C47.5521 16.7031 48.0417 16.125 48.6875 15.6562C49.3438 15.1771 50.1615 14.8177 51.1406 14.5781C52.1198 14.3281 53.2552 14.2031 54.5469 14.2031H57.1562ZM69.0625 0.484375V24.5H64.5625V0.484375H69.0625ZM79.7188 7.59375L72.375 15.9688L68.4375 19.9531L66.7969 16.7031L69.9219 12.7344L74.3125 7.59375H79.7188ZM75.0469 24.5L70.0469 16.6875L73.1562 13.9688L80.2344 24.5H75.0469Z" fill="#0F172A"/>
<path d="M86.4062 7.59375V24.5H81.8906V7.59375H86.4062ZM81.6094 3.1875C81.6094 2.53125 81.8385 1.98958 82.2969 1.5625C82.7552 1.13542 83.3698 0.921875 84.1406 0.921875C84.901 0.921875 85.5104 1.13542 85.9688 1.5625C86.4375 1.98958 86.6719 2.53125 86.6719 3.1875C86.6719 3.84375 86.4375 4.38542 85.9688 4.8125C85.5104 5.23958 84.901 5.45312 84.1406 5.45312C83.3698 5.45312 82.7552 5.23958 82.2969 4.8125C81.8385 4.38542 81.6094 3.84375 81.6094 3.1875ZM89.4062 16.2188V15.8906C89.4062 14.651 89.5833 13.5104 89.9375 12.4688C90.2917 11.4167 90.8073 10.5052 91.4844 9.73438C92.1615 8.96354 92.9948 8.36458 93.9844 7.9375C94.974 7.5 96.1094 7.28125 97.3906 7.28125C98.6719 7.28125 99.8125 7.5 100.812 7.9375C101.812 8.36458 102.651 8.96354 103.328 9.73438C104.016 10.5052 104.536 11.4167 104.891 12.4688C105.245 13.5104 105.422 14.651 105.422 15.8906V16.2188C105.422 17.4479 105.245 18.5885 104.891 19.6406C104.536 20.6823 104.016 21.5938 103.328 22.375C102.651 23.1458 101.818 23.7448 100.828 24.1719C99.8385 24.599 98.7031 24.8125 97.4219 24.8125C96.1406 24.8125 95 24.599 94 24.1719C93.0104 23.7448 92.1719 23.1458 91.4844 22.375C90.8073 21.5938 90.2917 20.6823 89.9375 19.6406C89.5833 18.5885 89.4062 17.4479 89.4062 16.2188ZM93.9062 15.8906V16.2188C93.9062 16.9271 93.9688 17.5885 94.0938 18.2031C94.2188 18.8177 94.4167 19.3594 94.6875 19.8281C94.9688 20.2865 95.3333 20.6458 95.7812 20.9062C96.2292 21.1667 96.776 21.2969 97.4219 21.2969C98.0469 21.2969 98.5833 21.1667 99.0312 20.9062C99.4792 20.6458 99.8385 20.2865 100.109 19.8281C100.38 19.3594 100.578 18.8177 100.703 18.2031C100.839 17.5885 100.906 16.9271 100.906 16.2188V15.8906C100.906 15.2031 100.839 14.5573 100.703 13.9531C100.578 13.3385 100.375 12.7969 100.094 12.3281C99.8229 11.849 99.4635 11.474 99.0156 11.2031C98.5677 10.9323 98.026 10.7969 97.3906 10.7969C96.7552 10.7969 96.2135 10.9323 95.7656 11.2031C95.3281 11.474 94.9688 11.849 94.6875 12.3281C94.4167 12.7969 94.2188 13.3385 94.0938 13.9531C93.9688 14.5573 93.9062 15.2031 93.9062 15.8906Z" fill="#86198F"/>
</svg>
