<svg width="65" height="16" viewBox="0 0 65 16" fill="none" xmlns="http://www.w3.org/2000/svg">
<path d="M0.220703 0H2.57422V12.7441L2.34961 15H0.220703V0ZM9.46875 9.61914V9.82422C9.46875 10.6055 9.38086 11.3249 9.20508 11.9824C9.03581 12.6335 8.77539 13.1999 8.42383 13.6816C8.07878 14.1634 7.64909 14.5378 7.13477 14.8047C6.62695 15.0651 6.03776 15.1953 5.36719 15.1953C4.70964 15.1953 4.13672 15.0716 3.64844 14.8242C3.16016 14.5768 2.75 14.2253 2.41797 13.7695C2.09245 13.3138 1.82878 12.7702 1.62695 12.1387C1.42513 11.5072 1.2819 10.8105 1.19727 10.0488V9.39453C1.2819 8.6263 1.42513 7.92969 1.62695 7.30469C1.82878 6.67318 2.09245 6.12956 2.41797 5.67383C2.75 5.21159 3.1569 4.85677 3.63867 4.60938C4.12695 4.36198 4.69661 4.23828 5.34766 4.23828C6.02474 4.23828 6.62044 4.36849 7.13477 4.62891C7.6556 4.88932 8.08854 5.26042 8.43359 5.74219C8.77865 6.21745 9.03581 6.78385 9.20508 7.44141C9.38086 8.09896 9.46875 8.82487 9.46875 9.61914ZM7.11523 9.82422V9.61914C7.11523 9.14388 7.07617 8.69792 6.99805 8.28125C6.91992 7.85807 6.78971 7.48698 6.60742 7.16797C6.43164 6.84896 6.19076 6.59831 5.88477 6.41602C5.58529 6.22721 5.21094 6.13281 4.76172 6.13281C4.34505 6.13281 3.98698 6.20443 3.6875 6.34766C3.38802 6.49089 3.13737 6.6862 2.93555 6.93359C2.73372 7.18099 2.57422 7.46745 2.45703 7.79297C2.34635 8.11849 2.27148 8.47005 2.23242 8.84766V10.6152C2.29102 11.1035 2.41471 11.5527 2.60352 11.9629C2.79883 12.3665 3.07227 12.6921 3.42383 12.9395C3.77539 13.1803 4.22786 13.3008 4.78125 13.3008C5.21745 13.3008 5.58529 13.2129 5.88477 13.0371C6.18424 12.8613 6.42188 12.6172 6.59766 12.3047C6.77995 11.9857 6.91016 11.6146 6.98828 11.1914C7.07292 10.7682 7.11523 10.3125 7.11523 9.82422ZM13.8242 6.44531V15H11.4707V4.43359H13.7168L13.8242 6.44531ZM17.0566 4.36523L17.0371 6.55273C16.8939 6.52669 16.7376 6.50716 16.5684 6.49414C16.4056 6.48112 16.2428 6.47461 16.0801 6.47461C15.6764 6.47461 15.3216 6.5332 15.0156 6.65039C14.7096 6.76107 14.4525 6.92383 14.2441 7.13867C14.0423 7.34701 13.8861 7.60091 13.7754 7.90039C13.6647 8.19987 13.5996 8.53516 13.5801 8.90625L13.043 8.94531C13.043 8.28125 13.1081 7.66602 13.2383 7.09961C13.3685 6.5332 13.5638 6.03516 13.8242 5.60547C14.0911 5.17578 14.4232 4.84049 14.8203 4.59961C15.224 4.35872 15.6895 4.23828 16.2168 4.23828C16.36 4.23828 16.513 4.2513 16.6758 4.27734C16.8451 4.30339 16.972 4.33268 17.0566 4.36523ZM22.9941 15.1953C22.2129 15.1953 21.5065 15.0684 20.875 14.8145C20.25 14.554 19.7161 14.1927 19.2734 13.7305C18.8372 13.2682 18.502 12.7246 18.2676 12.0996C18.0332 11.4746 17.916 10.8008 17.916 10.0781V9.6875C17.916 8.86068 18.0365 8.11198 18.2773 7.44141C18.5182 6.77083 18.8535 6.19792 19.2832 5.72266C19.7129 5.24089 20.2207 4.87305 20.8066 4.61914C21.3926 4.36523 22.0273 4.23828 22.7109 4.23828C23.4661 4.23828 24.127 4.36523 24.6934 4.61914C25.2598 4.87305 25.7285 5.23112 26.0996 5.69336C26.4772 6.14909 26.7572 6.69271 26.9395 7.32422C27.1283 7.95573 27.2227 8.65234 27.2227 9.41406V10.4199H19.0586V8.73047H24.8984V8.54492C24.8854 8.12174 24.8008 7.72461 24.6445 7.35352C24.4948 6.98242 24.2637 6.68294 23.9512 6.45508C23.6387 6.22721 23.222 6.11328 22.7012 6.11328C22.3105 6.11328 21.9622 6.19792 21.6562 6.36719C21.3568 6.52995 21.1061 6.76758 20.9043 7.08008C20.7025 7.39258 20.5462 7.77018 20.4355 8.21289C20.3314 8.64909 20.2793 9.14062 20.2793 9.6875V10.0781C20.2793 10.5404 20.3411 10.9701 20.4648 11.3672C20.5951 11.7578 20.7839 12.0996 21.0312 12.3926C21.2786 12.6855 21.5781 12.9167 21.9297 13.0859C22.2812 13.2487 22.6816 13.3301 23.1309 13.3301C23.6973 13.3301 24.2018 13.2161 24.6445 12.9883C25.0872 12.7604 25.4714 12.4382 25.7969 12.0215L27.0371 13.2227C26.8092 13.5547 26.513 13.8737 26.1484 14.1797C25.7839 14.4792 25.3379 14.7233 24.8105 14.9121C24.2897 15.1009 23.6842 15.1953 22.9941 15.1953ZM35.0156 12.8809V7.8418C35.0156 7.46419 34.9473 7.13867 34.8105 6.86523C34.6738 6.5918 34.4655 6.38021 34.1855 6.23047C33.9121 6.08073 33.5671 6.00586 33.1504 6.00586C32.7663 6.00586 32.4342 6.07096 32.1543 6.20117C31.8743 6.33138 31.6562 6.50716 31.5 6.72852C31.3438 6.94987 31.2656 7.20052 31.2656 7.48047H28.9219C28.9219 7.0638 29.0228 6.66016 29.2246 6.26953C29.4264 5.87891 29.7194 5.5306 30.1035 5.22461C30.4876 4.91862 30.9466 4.67773 31.4805 4.50195C32.0143 4.32617 32.6133 4.23828 33.2773 4.23828C34.0716 4.23828 34.7747 4.37174 35.3867 4.63867C36.0052 4.9056 36.4902 5.30924 36.8418 5.84961C37.1999 6.38346 37.3789 7.05404 37.3789 7.86133V12.5586C37.3789 13.0404 37.4115 13.4733 37.4766 13.8574C37.5482 14.235 37.6491 14.5638 37.7793 14.8438V15H35.3672C35.2565 14.7461 35.1686 14.4238 35.1035 14.0332C35.0449 13.6361 35.0156 13.252 35.0156 12.8809ZM35.3574 8.57422L35.377 10.0293H33.6875C33.2513 10.0293 32.8672 10.0716 32.5352 10.1562C32.2031 10.2344 31.9264 10.3516 31.7051 10.5078C31.4837 10.6641 31.3177 10.8529 31.207 11.0742C31.0964 11.2956 31.041 11.5462 31.041 11.8262C31.041 12.1061 31.1061 12.3633 31.2363 12.5977C31.3665 12.8255 31.5553 13.0046 31.8027 13.1348C32.0566 13.265 32.3626 13.3301 32.7207 13.3301C33.2025 13.3301 33.6224 13.2324 33.9805 13.0371C34.3451 12.8353 34.6315 12.5911 34.8398 12.3047C35.0482 12.0117 35.1589 11.735 35.1719 11.4746L35.9336 12.5195C35.8555 12.7865 35.722 13.0729 35.5332 13.3789C35.3444 13.6849 35.097 13.9779 34.791 14.2578C34.4915 14.5312 34.1302 14.7559 33.707 14.9316C33.2904 15.1074 32.8086 15.1953 32.2617 15.1953C31.5716 15.1953 30.9564 15.0586 30.416 14.7852C29.8757 14.5052 29.4525 14.1309 29.1465 13.6621C28.8405 13.1868 28.6875 12.6497 28.6875 12.0508C28.6875 11.4909 28.7917 10.9961 29 10.5664C29.2148 10.1302 29.5273 9.76562 29.9375 9.47266C30.3542 9.17969 30.862 8.95833 31.4609 8.80859C32.0599 8.65234 32.7435 8.57422 33.5117 8.57422H35.3574ZM42.2129 0V15H39.8496V0H42.2129ZM48.7754 4.43359L44.1758 9.53125L41.6562 12.1094L41.041 10.1172L42.9453 7.76367L45.9336 4.43359H48.7754ZM46.4414 15L43.0137 10.0391L44.498 8.38867L49.166 15H46.4414Z" fill="#0F172A"/>
<path d="M52.7891 4.43359V15H50.4258V4.43359H52.7891ZM50.2695 1.66016C50.2695 1.30208 50.3867 1.00586 50.6211 0.771484C50.862 0.530599 51.194 0.410156 51.6172 0.410156C52.0339 0.410156 52.3626 0.530599 52.6035 0.771484C52.8444 1.00586 52.9648 1.30208 52.9648 1.66016C52.9648 2.01172 52.8444 2.30469 52.6035 2.53906C52.3626 2.77344 52.0339 2.89062 51.6172 2.89062C51.194 2.89062 50.862 2.77344 50.6211 2.53906C50.3867 2.30469 50.2695 2.01172 50.2695 1.66016ZM54.918 9.83398V9.60938C54.918 8.84766 55.0286 8.14128 55.25 7.49023C55.4714 6.83268 55.7904 6.26302 56.207 5.78125C56.6302 5.29297 57.1445 4.91536 57.75 4.64844C58.362 4.375 59.0521 4.23828 59.8203 4.23828C60.5951 4.23828 61.2852 4.375 61.8906 4.64844C62.5026 4.91536 63.0202 5.29297 63.4434 5.78125C63.8665 6.26302 64.1888 6.83268 64.4102 7.49023C64.6315 8.14128 64.7422 8.84766 64.7422 9.60938V9.83398C64.7422 10.5957 64.6315 11.3021 64.4102 11.9531C64.1888 12.6042 63.8665 13.1738 63.4434 13.6621C63.0202 14.1439 62.5059 14.5215 61.9004 14.7949C61.2949 15.0618 60.6081 15.1953 59.8398 15.1953C59.0651 15.1953 58.3717 15.0618 57.7598 14.7949C57.1543 14.5215 56.64 14.1439 56.2168 13.6621C55.7936 13.1738 55.4714 12.6042 55.25 11.9531C55.0286 11.3021 54.918 10.5957 54.918 9.83398ZM57.2715 9.60938V9.83398C57.2715 10.3092 57.3203 10.7585 57.418 11.1816C57.5156 11.6048 57.6686 11.9759 57.877 12.2949C58.0853 12.6139 58.3522 12.8646 58.6777 13.0469C59.0033 13.2292 59.3906 13.3203 59.8398 13.3203C60.276 13.3203 60.6536 13.2292 60.9727 13.0469C61.2982 12.8646 61.5651 12.6139 61.7734 12.2949C61.9818 11.9759 62.1348 11.6048 62.2324 11.1816C62.3366 10.7585 62.3887 10.3092 62.3887 9.83398V9.60938C62.3887 9.14062 62.3366 8.69792 62.2324 8.28125C62.1348 7.85807 61.9785 7.48372 61.7637 7.1582C61.5553 6.83268 61.2884 6.57878 60.9629 6.39648C60.6439 6.20768 60.263 6.11328 59.8203 6.11328C59.3776 6.11328 58.9935 6.20768 58.668 6.39648C58.349 6.57878 58.0853 6.83268 57.877 7.1582C57.6686 7.48372 57.5156 7.85807 57.418 8.28125C57.3203 8.69792 57.2715 9.14062 57.2715 9.60938Z" fill="#86198F"/>
</svg>
